<svg width="500" height="500" version="1.1" xmlns="http://www.w3.org/2000/svg" desc="Created with imagetracer.js version 1.2.6" ><path fill="rgb(0,0,0)" stroke="rgb(0,0,0)" stroke-width="1" opacity="0" d="M 0.5 0 L 499.5 0 L 500 0.5 L 500 499.5 L 499.5 500 L 0.5 500 L 0 499.5 L 0 0.5 L 0.5 0 Z M 225 121 L 224 122 L 140 122 Q 125 124 117 132 Q 109 138 104 148 Q 104 151 102 153 L 102 156 L 101 157 L 101 161 L 100 162 L 100 352 L 99 353 Q 99 355 100 356 L 100 383 Q 102 394 108 402 Q 116 413 132 418 Q 135 417 137 419 L 141 419 L 142 420 L 176 420 L 178 418 Q 177 413 179 413 L 179 397 L 180 396 L 180 386 L 181 385 L 181 363 L 182 362 L 182 352 L 183 351 L 183 341 Q 185 340 184 336 L 185 335 L 185 331 Q 192 305 208 290 L 212 286 L 213 286 Q 216 285 216 281 L 214 278 Q 202 276 196 269 Q 182 258 178 238 L 178 224 Q 180 222 179 218 Q 180 216 181 215 L 181 212 Q 182 208 184 207 L 184 206 Q 187 199 192 196 L 192 195 Q 199 187 210 183 Q 215 184 217 181 L 224 181 L 225 180 L 269 180 L 270 181 L 278 181 Q 280 184 286 183 Q 292 186 298 190 Q 305 196 310 205 Q 311 211 315 216 Q 314 222 317 225 L 317 239 Q 314 241 315 248 Q 312 257 306 265 Q 299 272 291 278 Q 268 285 251 298 Q 235 311 226 331 Q 226 334 224 336 L 224 339 Q 223 340 222 342 Q 223 345 221 347 L 221 351 L 220 352 L 220 358 L 219 359 L 219 365 L 218 366 L 218 376 L 222 379 Q 224 379 226 378 Q 229 371 235 366 L 235 365 Q 249 346 274 338 Q 278 339 281 336 L 285 336 L 286 335 L 291 335 L 292 334 L 307 334 L 308 333 L 316 333 L 317 332 L 326 332 L 327 331 L 332 331 L 333 330 L 337 330 Q 337 328 341 329 Q 365 321 383 306 Q 398 292 407 273 L 407 271 Q 408 267 410 266 Q 410 261 412 260 L 412 258 L 413 257 Q 413 249 416 244 L 416 236 L 417 235 L 417 221 L 416 220 L 416 212 L 415 211 Q 414 200 411 193 Q 403 172 390 158 Q 371 134 337 125 Q 332 126 332 124 L 328 124 L 327 123 L 320 123 L 319 122 L 235 122 L 234 121 Q 232 121 232 122 Q 230 120 225 121 Z M 236 203 Q 228 204 224 208 Q 214 214 212 227 Q 211 242 218 250 Q 223 257 234 259 Q 249 261 257 255 Q 266 249 269 237 L 269 226 L 268 225 Q 268 219 265 216 Q 260 209 253 205 Q 250 204 247 204 L 246 203 L 236 203 Z " /><path fill="rgb(228,146,146)" stroke="rgb(228,146,146)" stroke-width="1" opacity="0.050980392156862744" d="M 224.5 121 Q 229.5 119.5 231 121.5 Q 229.5 123.5 224.5 122 Q 223.5 121.5 224.5 121 Z " /><path fill="rgb(228,146,146)" stroke="rgb(228,146,146)" stroke-width="1" opacity="0.050980392156862744" d="M 139.5 122 L 147.5 122 L 148 122.5 L 147.5 123 L 139.5 123 Q 138.5 122.5 139.5 122 Z " /><path fill="rgb(228,146,146)" stroke="rgb(228,146,146)" stroke-width="1" opacity="0.050980392156862744" d="M 304.5 122 L 318.5 122 L 319 122.5 L 318.5 123 L 304.5 123 Q 303.5 122.5 304.5 122 Z " /><path fill="rgb(228,146,146)" stroke="rgb(228,146,146)" stroke-width="1" opacity="0.050980392156862744" d="M 134.5 123 Q 135.8 122.8 136 123.5 Q 134.9 125.4 131.5 125 Q 130.5 124.5 131.5 124 Q 134 124.5 134.5 123 Z " /><path fill="rgb(228,146,146)" stroke="rgb(228,146,146)" stroke-width="1" opacity="0.050980392156862744" d="M 324.5 123 Q 326.5 122.5 327 123.5 Q 326.5 124.5 324.5 124 Q 323.5 123.5 324.5 123 Z " /><path fill="rgb(228,146,146)" stroke="rgb(228,146,146)" stroke-width="1" opacity="0.050980392156862744" d="M 328.5 124 Q 331.3 123.3 332 124.5 Q 331.3 125.8 328.5 125 Q 327.5 124.5 328.5 124 Z " /><path fill="rgb(228,146,146)" stroke="rgb(228,146,146)" stroke-width="1" opacity="0.050980392156862744" d="M 128.5 125 Q 130 126 127.5 127 Q 126.3 127.3 126 126.5 Q 127.8 126.3 128.5 125 Z " /><path fill="rgb(228,146,146)" stroke="rgb(228,146,146)" stroke-width="1" opacity="0.050980392156862744" d="M 334.5 125 Q 338.3 124.7 340 126.5 Q 339.5 127.5 337.5 127 Q 337 125.5 334.5 126 Q 333.5 125.5 334.5 125 Z " /><path fill="rgb(228,146,146)" stroke="rgb(228,146,146)" stroke-width="1" opacity="0.050980392156862744" d="M 348.5 129 Q 351.2 128.8 352 130.5 Q 351.8 131.3 350.5 131 Q 349.8 129.8 348 129.5 L 348.5 129 Z " /><path fill="rgb(228,146,146)" stroke="rgb(228,146,146)" stroke-width="1" opacity="0.050980392156862744" d="M 119.5 130 Q 121.5 131.5 117.5 133 L 116.5 133 L 111 138.5 L 111 139.5 L 107.5 143 L 107 142.5 L 110 139.5 L 110 138.5 L 116.5 132 Q 119.2 132.2 119.5 130 Z " /><path fill="rgb(228,146,146)" stroke="rgb(228,146,146)" stroke-width="1" opacity="0.050980392156862744" d="M 355.5 132 Q 357.8 131.8 358 133.5 Q 357.2 134.7 356.5 133 Q 354.1 132.9 355.5 132 Z " /><path fill="rgb(228,146,146)" stroke="rgb(228,146,146)" stroke-width="1" opacity="0.050980392156862744" d="M 373.5 142 L 378 146.5 L 377.5 147 L 373 142.5 L 373.5 142 Z " /><path fill="rgb(228,146,146)" stroke="rgb(228,146,146)" stroke-width="1" opacity="0.050980392156862744" d="M 105.5 146 Q 106.7 146.7 105 147.5 L 105 149.5 Q 102.8 151.3 102.5 155 Q 101.5 154.5 102 152.5 Q 104.4 151.4 104 147.5 L 105.5 146 Z " /><path fill="rgb(228,146,146)" stroke="rgb(228,146,146)" stroke-width="1" opacity="0.050980392156862744" d="M 379.5 147 L 390 157.5 L 389.5 158 L 379 147.5 L 379.5 147 Z " /><path fill="rgb(228,146,146)" stroke="rgb(228,146,146)" stroke-width="1" opacity="0.050980392156862744" d="M 101.5 156 Q 102.5 156.5 102 158.5 Q 101.5 159.5 101 158.5 Q 100.5 156.5 101.5 156 Z " /><path fill="rgb(228,146,146)" stroke="rgb(228,146,146)" stroke-width="1" opacity="0.050980392156862744" d="M 100.5 161 L 101 161.5 L 101 327.5 Q 100.5 328.5 100 327.5 L 100 161.5 L 100.5 161 Z " /><path fill="rgb(228,146,146)" stroke="rgb(228,146,146)" stroke-width="1" opacity="0.050980392156862744" d="M 392.5 161 Q 395.8 163.7 398 167.5 Q 396.5 169.5 395 165.5 Q 395.2 161.7 392 161.5 L 392.5 161 Z " /><path fill="rgb(228,146,146)" stroke="rgb(228,146,146)" stroke-width="1" opacity="0.050980392156862744" d="M 398.5 169 Q 400.3 170.3 401 172.5 Q 400 174 399 171.5 Q 397.1 169.9 398.5 169 Z " /><path fill="rgb(228,146,146)" stroke="rgb(228,146,146)" stroke-width="1" opacity="0.050980392156862744" d="M 401.5 174 Q 404 176 405 179.5 Q 404 181 403 178.5 Q 403.2 175.3 401 174.5 L 401.5 174 Z " /><path fill="rgb(228,146,146)" stroke="rgb(228,146,146)" stroke-width="1" opacity="0.050980392156862744" d="M 227.5 179 L 248.5 179 L 249 179.5 L 248.5 180 L 227.5 180 Q 226.5 179.5 227.5 179 Z " /><path fill="rgb(228,146,146)" stroke="rgb(228,146,146)" stroke-width="1" opacity="0.050980392156862744" d="M 220.5 180 Q 223.3 179.3 224 180.5 Q 223.3 181.8 220.5 181 Q 219.5 180.5 220.5 180 Z " /><path fill="rgb(228,146,146)" stroke="rgb(228,146,146)" stroke-width="1" opacity="0.050980392156862744" d="M 269.5 180 Q 273.7 178.8 275 180.5 Q 273.7 182.2 269.5 181 Q 268.5 180.5 269.5 180 Z " /><path fill="rgb(228,146,146)" stroke="rgb(228,146,146)" stroke-width="1" opacity="0.050980392156862744" d="M 214.5 181 Q 215.8 180.8 216 181.5 Q 214.9 183.4 211.5 183 Q 210.5 182.5 211.5 182 Q 214 182.5 214.5 181 Z " /><path fill="rgb(228,146,146)" stroke="rgb(228,146,146)" stroke-width="1" opacity="0.050980392156862744" d="M 279.5 181 Q 282.6 180.8 284 182.5 Q 283.5 183.5 281.5 183 Q 280.8 181.8 279 181.5 L 279.5 181 Z " /><path fill="rgb(228,146,146)" stroke="rgb(228,146,146)" stroke-width="1" opacity="0.050980392156862744" d="M 205.5 184 Q 206.8 183.8 207 184.5 Q 205.3 184.8 204.5 186 Q 203 185 205.5 184 Z " /><path fill="rgb(228,146,146)" stroke="rgb(228,146,146)" stroke-width="1" opacity="0.050980392156862744" d="M 288.5 184 Q 290.8 183.8 291 185.5 Q 290.2 186.7 289.5 185 Q 287.1 184.9 288.5 184 Z " /><path fill="rgb(228,146,146)" stroke="rgb(228,146,146)" stroke-width="1" opacity="0.050980392156862744" d="M 202.5 186 Q 204 187 201.5 188 Q 199.7 187.7 199.5 189 Q 198 188 200.5 187 Q 202.2 187.2 202.5 186 Z " /><path fill="rgb(228,146,146)" stroke="rgb(228,146,146)" stroke-width="1" opacity="0.050980392156862744" d="M 294.5 187 L 297 189.5 L 296.5 190 Q 292.5 188.5 294.5 187 Z " /><path fill="rgb(228,146,146)" stroke="rgb(228,146,146)" stroke-width="1" opacity="0.050980392156862744" d="M 196.5 190 L 197 190.5 L 193.5 194 L 193 193.5 L 196.5 190 Z " /><path fill="rgb(228,146,146)" stroke="rgb(228,146,146)" stroke-width="1" opacity="0.050980392156862744" d="M 298.5 190 Q 305.8 195.2 310 203.5 Q 309 205 308 202.5 Q 304.8 194.7 298 190.5 L 298.5 190 Z " /><path fill="rgb(228,146,146)" stroke="rgb(228,146,146)" stroke-width="1" opacity="0.050980392156862744" d="M 409.5 190 Q 411.2 190.8 411 193.5 Q 410.5 194.5 410 193.5 Q 408.3 192 409.5 190 Z " /><path fill="rgb(228,146,146)" stroke="rgb(228,146,146)" stroke-width="1" opacity="0.050980392156862744" d="M 191.5 195 L 192 195.5 L 188.5 199 L 188 198.5 L 191.5 195 Z " /><path fill="rgb(228,146,146)" stroke="rgb(228,146,146)" stroke-width="1" opacity="0.050980392156862744" d="M 412.5 198 Q 412.1 201.4 414 202.5 L 414 204.5 Q 413.5 205.5 413 204.5 Q 411.3 201.8 412.5 198 Z " /><path fill="rgb(228,146,146)" stroke="rgb(228,146,146)" stroke-width="1" opacity="0.050980392156862744" d="M 186.5 201 Q 187.7 201.7 186 202.5 Q 186.3 204.8 184.5 205 Q 183.2 204.2 185 203.5 Q 184.8 201.3 186.5 201 Z " /><path fill="rgb(228,146,146)" stroke="rgb(228,146,146)" stroke-width="1" opacity="0.050980392156862744" d="M 235.5 203 Q 238.3 202.3 239 203.5 Q 238.3 204.8 235.5 204 Q 234.5 203.5 235.5 203 Z " /><path fill="rgb(228,146,146)" stroke="rgb(228,146,146)" stroke-width="1" opacity="0.050980392156862744" d="M 243.5 203 Q 245.5 202.5 246 203.5 Q 245.5 204.5 243.5 204 Q 242.5 203.5 243.5 203 Z " /><path fill="rgb(228,146,146)" stroke="rgb(228,146,146)" stroke-width="1" opacity="0.050980392156862744" d="M 247.5 204 Q 249.5 203.5 250 204.5 Q 249.5 205.5 247.5 205 Q 246.5 204.5 247.5 204 Z " /><path fill="rgb(228,146,146)" stroke="rgb(228,146,146)" stroke-width="1" opacity="0.050980392156862744" d="M 228.5 205 Q 229.8 204.8 230 205.5 Q 228.3 205.8 227.5 207 Q 226 206 228.5 205 Z " /><path fill="rgb(228,146,146)" stroke="rgb(228,146,146)" stroke-width="1" opacity="0.050980392156862744" d="M 251.5 205 Q 253.8 204.8 254 206.5 Q 253.2 207.7 252.5 206 Q 250.1 205.9 251.5 205 Z " /><path fill="rgb(228,146,146)" stroke="rgb(228,146,146)" stroke-width="1" opacity="0.050980392156862744" d="M 310.5 205 Q 312.3 205.3 312 207.5 Q 311.5 208.5 311 207.5 Q 309.1 205.9 310.5 205 Z " /><path fill="rgb(228,146,146)" stroke="rgb(228,146,146)" stroke-width="1" opacity="0.050980392156862744" d="M 414.5 207 Q 415.5 207.5 415 209.5 Q 414.5 210.5 414 209.5 Q 413.5 207.5 414.5 207 Z " /><path fill="rgb(228,146,146)" stroke="rgb(228,146,146)" stroke-width="1" opacity="0.050980392156862744" d="M 223.5 208 Q 225.5 209.5 221.5 211 L 221 210.5 L 223.5 208 Z " /><path fill="rgb(228,146,146)" stroke="rgb(228,146,146)" stroke-width="1" opacity="0.050980392156862744" d="M 258.5 209 L 265 215.5 L 264.5 216 L 258 209.5 L 258.5 209 Z " /><path fill="rgb(228,146,146)" stroke="rgb(228,146,146)" stroke-width="1" opacity="0.050980392156862744" d="M 313.5 211 Q 315.2 211.8 315 214.5 Q 314.5 215.5 314 214.5 Q 312.3 213 313.5 211 Z " /><path fill="rgb(228,146,146)" stroke="rgb(228,146,146)" stroke-width="1" opacity="0.050980392156862744" d="M 415.5 211 Q 417 212 416 215.5 Q 415.5 216.5 415 215.5 Q 414 212 415.5 211 Z " /><path fill="rgb(228,146,146)" stroke="rgb(228,146,146)" stroke-width="1" opacity="0.050980392156862744" d="M 180.5 212 Q 181.5 212.5 181 214.5 Q 179.8 215.3 179.5 217 Q 178.8 216.8 179 215.5 Q 180.6 214.6 180.5 212 Z " /><path fill="rgb(228,146,146)" stroke="rgb(228,146,146)" stroke-width="1" opacity="0.050980392156862744" d="M 219.5 212 Q 221.2 213.2 218 214.5 Q 218.2 217.8 215.5 218 Q 213.7 216.7 217 215.5 Q 216.7 212.2 219.5 212 Z " /><path fill="rgb(228,146,146)" stroke="rgb(228,146,146)" stroke-width="1" opacity="0.050980392156862744" d="M 315.5 217 Q 316.5 217.5 316 219.5 Q 315.5 220.5 315 219.5 Q 314.5 217.5 315.5 217 Z " /><path fill="rgb(228,146,146)" stroke="rgb(228,146,146)" stroke-width="1" opacity="0.050980392156862744" d="M 178.5 219 Q 179.8 219.8 179 222.5 Q 178.5 223.5 178 222.5 Q 177.3 219.8 178.5 219 Z " /><path fill="rgb(228,146,146)" stroke="rgb(228,146,146)" stroke-width="1" opacity="0.050980392156862744" d="M 416.5 220 L 417 220.5 L 417 234.5 Q 416.5 235.5 416 234.5 L 416 220.5 L 416.5 220 Z " /><path fill="rgb(228,146,146)" stroke="rgb(228,146,146)" stroke-width="1" opacity="0.050980392156862744" d="M 316.5 221 Q 317.5 221.5 317 223.5 Q 316.5 224.5 316 223.5 Q 315.5 221.5 316.5 221 Z " /><path fill="rgb(228,146,146)" stroke="rgb(228,146,146)" stroke-width="1" opacity="0.050980392156862744" d="M 177.5 224 L 178 224.5 L 178 236.5 Q 177.5 237.5 177 236.5 L 177 224.5 L 177.5 224 Z " /><path fill="rgb(228,146,146)" stroke="rgb(228,146,146)" stroke-width="1" opacity="0.050980392156862744" d="M 268.5 225 Q 269.8 225.8 269 228.5 Q 268.5 229.5 268 228.5 Q 267.3 225.8 268.5 225 Z " /><path fill="rgb(228,146,146)" stroke="rgb(228,146,146)" stroke-width="1" opacity="0.050980392156862744" d="M 212.5 226 L 213 226.5 L 213 236.5 Q 212.5 237.5 212 236.5 L 212 226.5 L 212.5 226 Z " /><path fill="rgb(228,146,146)" stroke="rgb(228,146,146)" stroke-width="1" opacity="0.050980392156862744" d="M 268.5 232 Q 270 233 269 236.5 Q 268.5 237.5 268 236.5 Q 267 233 268.5 232 Z " /><path fill="rgb(228,146,146)" stroke="rgb(228,146,146)" stroke-width="1" opacity="0.050980392156862744" d="M 178.5 238 Q 179.8 238.8 179 241.5 Q 178.5 242.5 178 241.5 Q 177.3 238.8 178.5 238 Z " /><path fill="rgb(228,146,146)" stroke="rgb(228,146,146)" stroke-width="1" opacity="0.050980392156862744" d="M 316.5 239 Q 317.5 239.5 317 241.5 Q 316.5 242.5 316 241.5 Q 315.5 239.5 316.5 239 Z " /><path fill="rgb(228,146,146)" stroke="rgb(228,146,146)" stroke-width="1" opacity="0.050980392156862744" d="M 415.5 240 Q 416.8 240.8 416 243.5 Q 415.5 244.5 415 243.5 Q 414.3 240.8 415.5 240 Z " /><path fill="rgb(228,146,146)" stroke="rgb(228,146,146)" stroke-width="1" opacity="0.050980392156862744" d="M 266.5 241 Q 267.3 241.3 267 242.5 Q 266 245 265 243.5 Q 266.3 242.8 266.5 241 Z " /><path fill="rgb(228,146,146)" stroke="rgb(228,146,146)" stroke-width="1" opacity="0.050980392156862744" d="M 315.5 243 Q 316.5 243.5 316 245.5 Q 315.5 246.5 315 245.5 Q 314.5 243.5 315.5 243 Z " /><path fill="rgb(228,146,146)" stroke="rgb(228,146,146)" stroke-width="1" opacity="0.050980392156862744" d="M 264.5 245 Q 265.7 245.7 264 246.5 L 264 247.5 L 256.5 255 L 256 254.5 L 263 247.5 Q 262.8 245.3 264.5 245 Z " /><path fill="rgb(228,146,146)" stroke="rgb(228,146,146)" stroke-width="1" opacity="0.050980392156862744" d="M 181.5 249 Q 181.8 250.8 183 251.5 Q 182 253 181 250.5 Q 180.8 249.3 181.5 249 Z " /><path fill="rgb(228,146,146)" stroke="rgb(228,146,146)" stroke-width="1" opacity="0.050980392156862744" d="M 218.5 249 L 222 252.5 L 221.5 253 L 218 249.5 L 218.5 249 Z " /><path fill="rgb(228,146,146)" stroke="rgb(228,146,146)" stroke-width="1" opacity="0.050980392156862744" d="M 413.5 250 Q 414.5 250.5 414 252.5 L 413 253.5 Q 413.4 257.9 411.5 260 Q 410.5 259.5 411 257.5 L 412 256.5 Q 411.6 252.1 413.5 250 Z " /><path fill="rgb(228,146,146)" stroke="rgb(228,146,146)" stroke-width="1" opacity="0.050980392156862744" d="M 223.5 253 Q 225.4 255.6 229 256.5 Q 228.8 257.3 227.5 257 Q 225.8 254.8 223 253.5 L 223.5 253 Z " /><path fill="rgb(228,146,146)" stroke="rgb(228,146,146)" stroke-width="1" opacity="0.050980392156862744" d="M 251.5 256 Q 252.8 255.8 253 256.5 Q 252.2 258.2 249.5 258 Q 248.5 257.5 249.5 257 Q 251.2 257.2 251.5 256 Z " /><path fill="rgb(228,146,146)" stroke="rgb(228,146,146)" stroke-width="1" opacity="0.050980392156862744" d="M 233.5 258 Q 236.3 257.3 237 258.5 Q 236.3 259.8 233.5 259 Q 232.5 258.5 233.5 258 Z " /><path fill="rgb(228,146,146)" stroke="rgb(228,146,146)" stroke-width="1" opacity="0.050980392156862744" d="M 244.5 258 Q 246.5 257.5 247 258.5 Q 246.5 259.5 244.5 259 Q 243.5 258.5 244.5 258 Z " /><path fill="rgb(228,146,146)" stroke="rgb(228,146,146)" stroke-width="1" opacity="0.050980392156862744" d="M 186.5 259 Q 190.5 260.5 188.5 262 L 186 259.5 L 186.5 259 Z " /><path fill="rgb(228,146,146)" stroke="rgb(228,146,146)" stroke-width="1" opacity="0.050980392156862744" d="M 189.5 263 L 195 268.5 L 194.5 269 L 189 263.5 L 189.5 263 Z " /><path fill="rgb(228,146,146)" stroke="rgb(228,146,146)" stroke-width="1" opacity="0.050980392156862744" d="M 409.5 264 Q 410.3 264.3 410 265.5 Q 408.8 266.3 408.5 268 Q 407.8 267.8 408 266.5 Q 409.3 265.8 409.5 264 Z " /><path fill="rgb(228,146,146)" stroke="rgb(228,146,146)" stroke-width="1" opacity="0.050980392156862744" d="M 305.5 265 L 306 265.5 L 297.5 274 Q 294.7 273.7 294.5 276 L 294 275.5 L 296.5 273 L 297.5 273 L 305.5 265 Z " /><path fill="rgb(228,146,146)" stroke="rgb(228,146,146)" stroke-width="1" opacity="0.050980392156862744" d="M 406.5 271 Q 407.3 271.3 407 272.5 Q 406 276 403.5 278 Q 402.2 277.2 404 276.5 L 404 275.5 Q 406 273.9 406.5 271 Z " /><path fill="rgb(228,146,146)" stroke="rgb(228,146,146)" stroke-width="1" opacity="0.050980392156862744" d="M 208.5 276 Q 209.3 277.3 211 277.5 Q 210.8 278.3 209.5 278 Q 207 277 208.5 276 Z " /><path fill="rgb(228,146,146)" stroke="rgb(228,146,146)" stroke-width="1" opacity="0.050980392156862744" d="M 213.5 278 Q 216.5 278.5 216 282.5 L 212.5 286 L 212 285.5 Q 215.5 285 215 280.5 Q 211.8 279.2 213.5 278 Z " /><path fill="rgb(228,146,146)" stroke="rgb(228,146,146)" stroke-width="1" opacity="0.050980392156862744" d="M 284.5 280 Q 285.8 279.8 286 280.5 Q 282.7 283.2 277.5 284 Q 276.5 283.5 277.5 283 Q 282 282.5 284.5 280 Z " /><path fill="rgb(228,146,146)" stroke="rgb(228,146,146)" stroke-width="1" opacity="0.050980392156862744" d="M 272.5 285 Q 273.8 284.8 274 285.5 Q 268.6 286.6 265.5 290 L 264.5 290 L 263.5 291 Q 262 290 264.5 289 L 265.5 289 Q 268.1 286.1 272.5 285 Z " /><path fill="rgb(228,146,146)" stroke="rgb(228,146,146)" stroke-width="1" opacity="0.050980392156862744" d="M 207.5 289 Q 208.3 289.3 208 290.5 L 201.5 297 L 201 296.5 Q 206 294.5 207.5 289 Z " /><path fill="rgb(228,146,146)" stroke="rgb(228,146,146)" stroke-width="1" opacity="0.050980392156862744" d="M 396.5 289 Q 398.2 290.2 395 291.5 L 395 292.5 L 390.5 297 L 390 296.5 L 394 292.5 Q 393.7 289.2 396.5 289 Z " /><path fill="rgb(228,146,146)" stroke="rgb(228,146,146)" stroke-width="1" opacity="0.050980392156862744" d="M 256.5 294 Q 258.5 295.5 254.5 297 Q 251.3 296.8 250.5 299 L 238.5 311 L 238 310.5 L 250.5 298 L 251.5 298 Q 253.6 295.6 256.5 294 Z " /><path fill="rgb(228,146,146)" stroke="rgb(228,146,146)" stroke-width="1" opacity="0.050980392156862744" d="M 200.5 298 Q 202.5 299.5 198.5 301 L 198 300.5 L 200.5 298 Z " /><path fill="rgb(228,146,146)" stroke="rgb(228,146,146)" stroke-width="1" opacity="0.050980392156862744" d="M 389.5 298 L 390 298.5 L 382.5 306 Q 381.8 305.8 382 304.5 Q 387.5 303 389.5 298 Z " /><path fill="rgb(228,146,146)" stroke="rgb(228,146,146)" stroke-width="1" opacity="0.050980392156862744" d="M 194.5 306 Q 195.3 306.3 195 307.5 Q 194.3 309.8 192.5 311 Q 191.2 310.2 193 309.5 Q 192.8 306.8 194.5 306 Z " /><path fill="rgb(228,146,146)" stroke="rgb(228,146,146)" stroke-width="1" opacity="0.050980392156862744" d="M 380.5 306 L 381 306.5 L 377.5 310 L 377 309.5 L 380.5 306 Z " /><path fill="rgb(228,146,146)" stroke="rgb(228,146,146)" stroke-width="1" opacity="0.050980392156862744" d="M 375.5 310 Q 377.5 311.5 373.5 313 L 373 312.5 L 375.5 310 Z " /><path fill="rgb(228,146,146)" stroke="rgb(228,146,146)" stroke-width="1" opacity="0.050980392156862744" d="M 191.5 312 Q 192.3 312.3 192 313.5 Q 188.9 317.4 187.5 323 Q 186.8 322.8 187 321.5 L 188 320.5 L 188 318.5 Q 190.7 316.2 191.5 312 Z " /><path fill="rgb(228,146,146)" stroke="rgb(228,146,146)" stroke-width="1" opacity="0.050980392156862744" d="M 237.5 312 Q 239.5 313.5 235.5 315 L 235 314.5 L 237.5 312 Z " /><path fill="rgb(228,146,146)" stroke="rgb(228,146,146)" stroke-width="1" opacity="0.050980392156862744" d="M 234.5 316 Q 235.7 316.7 234 317.5 L 234 318.5 Q 231 321 229.5 325 Q 228.2 324.2 230 323.5 Q 231.1 318.6 234.5 316 Z " /><path fill="rgb(228,146,146)" stroke="rgb(228,146,146)" stroke-width="1" opacity="0.050980392156862744" d="M 364.5 317 Q 365.8 316.8 366 317.5 Q 364.3 317.8 363.5 319 Q 362 318 364.5 317 Z " /><path fill="rgb(228,146,146)" stroke="rgb(228,146,146)" stroke-width="1" opacity="0.050980392156862744" d="M 357.5 321 Q 358.8 320.8 359 321.5 Q 358.2 323.2 355.5 323 Q 354.5 322.5 355.5 322 Q 357.2 322.2 357.5 321 Z " /><path fill="rgb(228,146,146)" stroke="rgb(228,146,146)" stroke-width="1" opacity="0.050980392156862744" d="M 186.5 324 Q 187.5 324.5 187 326.5 Q 185.4 327.4 185.5 330 Q 184.5 329.5 185 327.5 Q 186.6 326.6 186.5 324 Z " /><path fill="rgb(228,146,146)" stroke="rgb(228,146,146)" stroke-width="1" opacity="0.050980392156862744" d="M 347.5 325 Q 348.8 324.8 349 325.5 Q 346.5 327.5 342.5 328 Q 341.5 327.5 342.5 327 Q 346 327.1 347.5 325 Z " /><path fill="rgb(228,146,146)" stroke="rgb(228,146,146)" stroke-width="1" opacity="0.050980392156862744" d="M 227.5 328 Q 228.3 328.3 228 329.5 Q 226.8 330.3 226.5 332 Q 225.8 331.8 226 330.5 Q 227.3 329.8 227.5 328 Z " /><path fill="rgb(228,146,146)" stroke="rgb(228,146,146)" stroke-width="1" opacity="0.050980392156862744" d="M 338.5 328 Q 340.5 327.5 341 328.5 Q 340.5 329.5 338.5 329 Q 337.5 328.5 338.5 328 Z " /><path fill="rgb(228,146,146)" stroke="rgb(228,146,146)" stroke-width="1" opacity="0.050980392156862744" d="M 334.5 329 Q 336.5 328.5 337 329.5 Q 336.5 330.5 334.5 330 Q 333.5 329.5 334.5 329 Z " /><path fill="rgb(228,146,146)" stroke="rgb(228,146,146)" stroke-width="1" opacity="0.050980392156862744" d="M 327.5 330 Q 331 329 332 330.5 Q 331 332 327.5 331 Q 326.5 330.5 327.5 330 Z " /><path fill="rgb(228,146,146)" stroke="rgb(228,146,146)" stroke-width="1" opacity="0.050980392156862744" d="M 323.5 331 Q 325.5 330.5 326 331.5 Q 325.5 332.5 323.5 332 Q 322.5 331.5 323.5 331 Z " /><path fill="rgb(228,146,146)" stroke="rgb(228,146,146)" stroke-width="1" opacity="0.050980392156862744" d="M 184.5 332 Q 185.5 332.5 185 334.5 Q 184.5 335.5 184 334.5 Q 183.5 332.5 184.5 332 Z " /><path fill="rgb(228,146,146)" stroke="rgb(228,146,146)" stroke-width="1" opacity="0.050980392156862744" d="M 308.5 332 L 315.5 332 L 316 332.5 L 315.5 333 L 308.5 333 Q 307.5 332.5 308.5 332 Z " /><path fill="rgb(228,146,146)" stroke="rgb(228,146,146)" stroke-width="1" opacity="0.050980392156862744" d="M 225.5 333 Q 226.3 333.3 226 334.5 Q 224.8 335.3 224.5 337 Q 223.8 336.8 224 335.5 Q 225.3 334.8 225.5 333 Z " /><path fill="rgb(228,146,146)" stroke="rgb(228,146,146)" stroke-width="1" opacity="0.050980392156862744" d="M 298.5 333 L 306.5 333 L 307 333.5 L 306.5 334 L 298.5 334 Q 297.5 333.5 298.5 333 Z " /><path fill="rgb(228,146,146)" stroke="rgb(228,146,146)" stroke-width="1" opacity="0.050980392156862744" d="M 286.5 334 Q 290 333 291 334.5 Q 290 336 286.5 335 Q 285.5 334.5 286.5 334 Z " /><path fill="rgb(228,146,146)" stroke="rgb(228,146,146)" stroke-width="1" opacity="0.050980392156862744" d="M 282.5 335 Q 284.5 334.5 285 335.5 Q 284.5 336.5 282.5 336 Q 281.5 335.5 282.5 335 Z " /><path fill="rgb(228,146,146)" stroke="rgb(228,146,146)" stroke-width="1" opacity="0.050980392156862744" d="M 183.5 336 Q 184.8 336.8 184 339.5 Q 183.5 340.5 183 339.5 Q 182.3 336.8 183.5 336 Z " /><path fill="rgb(228,146,146)" stroke="rgb(228,146,146)" stroke-width="1" opacity="0.050980392156862744" d="M 274.5 337 Q 276.5 336.5 277 337.5 Q 276.5 338.5 274.5 338 Q 273.5 337.5 274.5 337 Z " /><path fill="rgb(228,146,146)" stroke="rgb(228,146,146)" stroke-width="1" opacity="0.050980392156862744" d="M 271.5 338 Q 272.8 337.8 273 338.5 Q 268.5 341.5 262.5 343 Q 261.5 342.5 262.5 342 L 263.5 342 Q 265.3 339.8 268.5 339 L 270.5 339 L 271.5 338 Z " /><path fill="rgb(228,146,146)" stroke="rgb(228,146,146)" stroke-width="1" opacity="0.050980392156862744" d="M 223.5 339 Q 224.3 339.3 224 340.5 Q 222.4 341.4 222.5 344 Q 221.5 343.5 222 341.5 Q 223.3 340.8 223.5 339 Z " /><path fill="rgb(228,146,146)" stroke="rgb(228,146,146)" stroke-width="1" opacity="0.050980392156862744" d="M 182.5 343 L 183 343.5 L 183 350.5 Q 182.5 351.5 182 350.5 L 182 343.5 L 182.5 343 Z " /><path fill="rgb(228,146,146)" stroke="rgb(228,146,146)" stroke-width="1" opacity="0.050980392156862744" d="M 260.5 343 Q 262 344 259.5 345 Q 256.3 344.8 255.5 347 Q 254 346 256.5 345 Q 259.7 345.2 260.5 343 Z " /><path fill="rgb(228,146,146)" stroke="rgb(228,146,146)" stroke-width="1" opacity="0.050980392156862744" d="M 221.5 346 Q 222.8 346.8 222 349.5 Q 221.5 350.5 221 349.5 Q 220.3 346.8 221.5 346 Z " /><path fill="rgb(228,146,146)" stroke="rgb(228,146,146)" stroke-width="1" opacity="0.050980392156862744" d="M 253.5 347 Q 255.5 348.5 251.5 350 L 251 349.5 L 253.5 347 Z " /><path fill="rgb(228,146,146)" stroke="rgb(228,146,146)" stroke-width="1" opacity="0.050980392156862744" d="M 249.5 350 Q 251.5 351.5 247.5 353 L 246.5 353 L 235.5 364 L 235 363.5 L 246.5 352 Q 249.2 352.2 249.5 350 Z " /><path fill="rgb(228,146,146)" stroke="rgb(228,146,146)" stroke-width="1" opacity="0.050980392156862744" d="M 220.5 351 Q 221.5 351.5 221 353.5 Q 220.5 354.5 220 353.5 Q 219.5 351.5 220.5 351 Z " /><path fill="rgb(228,146,146)" stroke="rgb(228,146,146)" stroke-width="1" opacity="0.050980392156862744" d="M 99.5 352 Q 100.5 352.5 100 354.5 Q 99.5 355.5 99 354.5 Q 98.5 352.5 99.5 352 Z " /><path fill="rgb(228,146,146)" stroke="rgb(228,146,146)" stroke-width="1" opacity="0.050980392156862744" d="M 181.5 352 L 182 352.5 L 182 361.5 Q 181.5 362.5 181 361.5 L 181 352.5 L 181.5 352 Z " /><path fill="rgb(228,146,146)" stroke="rgb(228,146,146)" stroke-width="1" opacity="0.050980392156862744" d="M 219.5 358 Q 221 359 220 362.5 Q 219.5 363.5 219 362.5 Q 218 359 219.5 358 Z " /><path fill="rgb(228,146,146)" stroke="rgb(228,146,146)" stroke-width="1" opacity="0.050980392156862744" d="M 218.5 365 L 219 365.5 L 219 375.5 L 221.5 378 Q 224.9 378.4 226 376.5 Q 225.7 373.2 228.5 373 Q 230.2 374.2 227 375.5 Q 227.3 377.8 225.5 378 Q 224.3 379.3 221.5 379 L 218 375.5 L 218 365.5 L 218.5 365 Z " /><path fill="rgb(228,146,146)" stroke="rgb(228,146,146)" stroke-width="1" opacity="0.050980392156862744" d="M 234.5 365 L 235 365.5 L 232 368.5 Q 232.2 371.7 229.5 372 Q 227.7 370.7 231 369.5 L 231 368.5 L 234.5 365 Z " /><path fill="rgb(228,146,146)" stroke="rgb(228,146,146)" stroke-width="1" opacity="0.050980392156862744" d="M 100.5 370 L 101 370.5 L 101 382.5 Q 100.5 383.5 100 382.5 L 100 370.5 L 100.5 370 Z " /><path fill="rgb(228,146,146)" stroke="rgb(228,146,146)" stroke-width="1" opacity="0.050980392156862744" d="M 180.5 370 L 181 370.5 L 181 384.5 Q 180.5 385.5 180 384.5 L 180 370.5 L 180.5 370 Z " /><path fill="rgb(228,146,146)" stroke="rgb(228,146,146)" stroke-width="1" opacity="0.050980392156862744" d="M 101.5 384 Q 102.5 384.5 102 386.5 Q 101.5 387.5 101 386.5 Q 100.5 384.5 101.5 384 Z " /><path fill="rgb(228,146,146)" stroke="rgb(228,146,146)" stroke-width="1" opacity="0.050980392156862744" d="M 179.5 386 L 180 386.5 L 180 394.5 Q 179.5 395.5 179 394.5 L 179 386.5 L 179.5 386 Z " /><path fill="rgb(228,146,146)" stroke="rgb(228,146,146)" stroke-width="1" opacity="0.050980392156862744" d="M 104.5 393 Q 108.7 403.8 117.5 410 L 118.5 410 Q 120.3 412.3 123 413.5 Q 122.2 414.7 121.5 413 Q 112.7 409.3 108 401.5 L 108 400.5 Q 105.2 398.3 104 394.5 Q 103.8 393.3 104.5 393 Z " /><path fill="rgb(228,146,146)" stroke="rgb(228,146,146)" stroke-width="1" opacity="0.050980392156862744" d="M 178.5 403 L 179 403.5 L 179 412.5 Q 178.5 413.5 178 412.5 L 178 403.5 L 178.5 403 Z " /><path fill="rgb(228,146,146)" stroke="rgb(228,146,146)" stroke-width="1" opacity="0.050980392156862744" d="M 124.5 414 Q 127.2 413.8 128 415.5 Q 127.8 416.3 126.5 416 Q 125.8 414.8 124 414.5 L 124.5 414 Z " /><path fill="rgb(228,146,146)" stroke="rgb(228,146,146)" stroke-width="1" opacity="0.050980392156862744" d="M 177.5 415 Q 178.5 415.5 178 417.5 L 175.5 420 L 141.5 420 Q 140.5 419.5 141.5 419 L 175.5 419 L 177 417.5 Q 176.5 415.5 177.5 415 Z " /><path fill="rgb(228,146,146)" stroke="rgb(228,146,146)" stroke-width="1" opacity="0.050980392156862744" d="M 129.5 416 Q 132.6 415.8 134 417.5 Q 133.5 418.5 131.5 418 Q 130.8 416.8 129 416.5 L 129.5 416 Z " /><path fill="rgb(228,146,146)" stroke="rgb(228,146,146)" stroke-width="1" opacity="0.050980392156862744" d="M 136.5 418 Q 139.3 417.3 140 418.5 Q 139.3 419.8 136.5 419 Q 135.5 418.5 136.5 418 Z " /><path fill="rgb(226,224,225)" stroke="rgb(226,224,225)" stroke-width="1" opacity="0.996078431372549" d="M 151.5 124 L 303.5 124 L 304.5 125 L 321.5 125 L 322.5 126 Q 326.5 125 327.5 127 L 332.5 127 Q 335.3 127.3 336.5 129 L 340.5 129 Q 346 130 349.5 133 L 351.5 133 Q 355.1 136.9 361.5 138 L 363.5 140 L 364.5 140 Q 365.7 141.7 368.5 142 Q 373 145 376.5 149 Q 377.8 148.8 378 149.5 Q 377.8 150.8 378.5 151 Q 379.8 150.8 380 151.5 Q 379.8 152.8 380.5 153 L 381.5 153 L 388 159.5 L 388 160.5 Q 394.3 166.7 399 174.5 Q 400.9 181.1 405 185.5 Q 406 193.5 410 198.5 Q 408 199.5 410 200.5 Q 411.4 202.6 411 206.5 L 412 207.5 L 412 212.5 L 413 213.5 Q 411 214.5 413 215.5 Q 411.3 221.8 414 223.5 L 414 233.5 L 413 234.5 Q 414.2 239.2 412 240.5 L 412 247.5 L 411 248.5 L 411 251.5 Q 409.3 252.2 410 255.5 L 409 256.5 L 409 258.5 Q 406.7 260.2 407 264.5 Q 405.6 265.6 405 267.5 L 405 269.5 L 403 271.5 L 403 273.5 Q 401.3 279.3 397 282.5 Q 397.2 284.7 396 285.5 Q 388.6 296.6 378.5 305 Q 377.3 304.8 377 305.5 Q 377.3 307.8 375.5 308 Q 358.9 320.9 335.5 327 L 331.5 327 L 330.5 328 Q 326.5 327 325.5 329 L 319.5 329 L 318.5 330 L 303.5 330 L 302.5 331 L 292.5 331 Q 290.7 333.7 284.5 332 L 283.5 333 L 280.5 333 L 279.5 334 L 276.5 334 L 275.5 335 L 273.5 335 Q 271.8 337.3 267.5 337 Q 248.8 344.8 236 358.5 L 236 359.5 Q 229.7 364.7 226 372.5 L 222.5 376 L 221 374.5 L 221 364.5 L 222 363.5 L 222 355.5 L 223 354.5 L 223 350.5 Q 225 349.5 224 345.5 L 225 344.5 L 225 341.5 Q 228.3 337.3 229 330.5 Q 236.4 313.9 249.5 303 Q 250.8 303.3 251 302.5 Q 250.8 301.3 251.5 301 Q 257.5 298.5 261.5 294 L 262.5 294 Q 264.5 291.5 268.5 291 L 270.5 289 L 272.5 289 Q 274.3 286.8 277.5 286 L 279.5 286 Q 280.6 284.6 282.5 284 L 284.5 284 Q 287.3 280.8 292.5 280 Q 301.7 274.7 308 266.5 Q 311.5 263 313 257.5 L 315 255.5 L 315 252.5 L 317 250.5 L 317 247.5 L 318 246.5 Q 317.3 243.3 319 242.5 Q 317.7 235.7 320 232.5 Q 318 231.5 320 230.5 Q 318 202.5 301.5 189 Q 295.9 184.1 288.5 181 Q 284.6 181.4 283.5 179 L 278.5 179 L 277.5 178 Q 273.5 179 272.5 177 L 221.5 177 Q 218.6 179.6 212.5 179 L 211.5 180 L 209.5 180 L 208.5 181 Q 204.2 180.7 202.5 183 Q 193.3 187.8 187 195.5 Q 179.6 204.1 176 216.5 Q 177 220.5 175 221.5 L 175 238.5 L 176 239.5 Q 176.1 247.4 179 252.5 Q 183.3 261.2 189.5 268 L 190.5 268 Q 195 273.5 201.5 277 Q 208.2 277.8 212 281.5 Q 201.6 290.1 194 301.5 Q 191.5 309 187 314.5 L 187 316.5 L 186 317.5 L 186 319.5 L 185 320.5 L 185 322.5 L 184 323.5 Q 184.3 327.8 182 329.5 L 182 333.5 L 181 334.5 Q 182 338.5 180 339.5 L 180 345.5 L 179 346.5 L 179 362.5 L 178 363.5 L 178 377.5 L 177 378.5 L 177 396.5 L 176 397.5 L 176 408.5 L 175 409.5 L 175 416.5 L 174.5 417 L 142.5 417 Q 141 414.5 135.5 416 Q 119 411.5 110 399.5 Q 110.2 396.7 108 396.5 L 108 394.5 Q 104.8 391.7 104 386.5 Q 102.1 381.4 103 373.5 L 102 372.5 L 102 304.5 L 103 303.5 L 103 276.5 Q 101 275.5 103 274.5 L 103 248.5 Q 100.2 246.8 102 240.5 L 103 239.5 L 103 160.5 Q 106.7 143.2 118.5 134 L 119.5 134 L 121.5 132 Q 127.1 130.5 130.5 127 L 133.5 127 L 134.5 126 Q 137.8 126.8 138.5 125 L 150.5 125 L 151.5 124 Z " /><path fill="rgb(226,224,225)" stroke="rgb(226,224,225)" stroke-width="1" opacity="0.996078431372549" d="M 235.5 206 Q 244 205 249.5 207 Q 256.6 209.9 261 215.5 Q 266.7 222.3 266 235.5 Q 263.6 245.6 256.5 251 Q 249.4 257.9 233.5 256 Q 224.9 253.6 220 247.5 L 220 246.5 Q 216.5 243 215 237.5 L 215 225.5 Q 217.4 215.9 224.5 211 Q 228.7 207.2 235.5 206 Z " /><path fill="rgb(242,206,204)" stroke="rgb(242,206,204)" stroke-width="1" opacity="0.30980392156862746" d="M 148.5 122 L 303.5 122 L 304 122.5 L 303.5 123 L 148.5 123 Q 147.5 122.5 148.5 122 Z " /><path fill="rgb(242,206,204)" stroke="rgb(242,206,204)" stroke-width="1" opacity="0.30980392156862746" d="M 136.5 123 Q 141.5 121.5 143 123.5 Q 138.8 122.8 137.5 125 L 134.5 125 Q 133.5 124.5 134.5 124 Q 136.2 124.2 136.5 123 Z " /><path fill="rgb(242,206,204)" stroke="rgb(242,206,204)" stroke-width="1" opacity="0.30980392156862746" d="M 310.5 123 Q 321.6 121.4 328 124.5 Q 326.5 126.5 321.5 125 L 320.5 124 L 310.5 124 Q 309.5 123.5 310.5 123 Z " /><path fill="rgb(242,206,204)" stroke="rgb(242,206,204)" stroke-width="1" opacity="0.30980392156862746" d="M 129.5 125 Q 132.3 124.3 133 125.5 Q 117.4 130.4 109 142.5 L 109 143.5 L 108 144.5 L 108 145.5 Q 105.1 148.1 104 152.5 Q 102.4 155.4 103 160.5 L 102 161.5 L 102 198.5 L 101.5 199 L 101 198.5 L 101 159.5 L 102 158.5 L 102 155.5 L 103 154.5 L 103 152.5 Q 106 149 107 143.5 Q 111.2 137.7 116.5 133 L 117.5 133 Q 120 130 123.5 128 Q 124.7 126.7 127.5 127 L 129.5 125 Z " /><path fill="rgb(242,206,204)" stroke="rgb(242,206,204)" stroke-width="1" opacity="0.30980392156862746" d="M 329.5 125 L 333.5 125 Q 335.8 127.7 341.5 127 Q 350.7 129.3 357.5 134 L 359.5 134 Q 377.6 143.4 390 158.5 Q 389.8 159.8 390.5 160 Q 391.8 159.8 392 160.5 Q 404.9 176.1 412 197.5 L 412 201.5 Q 413.7 202.7 414 205.5 Q 413 209.5 415 210.5 L 415 215.5 L 416 216.5 L 416 239.5 L 415 240.5 Q 415.7 244.7 414 246.5 Q 416 247.5 414 248.5 Q 406.2 283.7 383.5 304 Q 382.3 303.8 382 304.5 Q 382.3 305.8 381.5 306 L 380.5 306 Q 377 310 372.5 313 L 371.5 313 Q 369.4 315.4 366.5 317 L 364.5 317 Q 362.4 319.4 359.5 321 L 357.5 321 Q 352.6 325.1 344.5 326 Q 343.4 327.4 341.5 328 L 338.5 328 L 337.5 329 Q 334.3 328.3 333.5 330 L 327.5 330 L 326.5 331 Q 323.3 330.3 322.5 332 L 308.5 332 L 307.5 333 L 298.5 333 L 297.5 334 L 286.5 334 L 285.5 335 L 282.5 335 L 281.5 336 L 278.5 336 L 277.5 337 L 274.5 337 Q 272.8 339.3 268.5 339 Q 248 347.5 235 363.5 L 235 364.5 Q 229.1 369.6 225.5 377 Q 224.3 378.3 221.5 378 L 219 375.5 L 219 363.5 L 220 362.5 L 220 354.5 Q 222.7 351.2 222 344.5 Q 224.5 342.5 224 337.5 L 225 336.5 Q 225.5 332 228 329.5 L 228 327.5 Q 236.3 310.3 250.5 299 Q 256.5 296.5 260.5 292 L 261.5 292 L 262.5 291 L 263.5 291 L 264.5 290 L 265.5 290 L 266.5 289 L 267.5 289 L 268.5 288 L 269.5 288 Q 272.1 285.1 276.5 284 Q 279.7 284.2 281.5 283 Q 285.1 279.1 291.5 278 Q 300.1 273.1 306 265.5 L 306 264.5 Q 311.2 259.2 314 251.5 Q 313.7 247.2 316 245.5 L 316 242.5 L 317 241.5 L 317 230.5 L 318 229.5 L 317 228.5 L 317 221.5 L 316 220.5 L 316 217.5 Q 314.3 216.8 315 213.5 Q 311.6 211.9 312 206.5 Q 307 196.5 298.5 190 Q 291.4 183.1 279.5 181 Q 278.5 183 277.5 181 Q 275 181.5 274.5 180 L 249.5 180 L 248.5 179 L 227.5 179 L 226.5 180 L 220.5 180 Q 219.3 182.3 214.5 181 L 213.5 182 L 211.5 182 Q 209.8 184.3 205.5 184 Q 195.2 189.7 188 198.5 Q 182 205.5 179 215.5 Q 179.8 218.8 178 219.5 L 178 223.5 L 177 224.5 L 177 236.5 Q 180.9 257.6 194.5 269 Q 201.5 275.5 212.5 278 L 215 280.5 L 215 282.5 L 210.5 287 Q 209.3 286.8 209 287.5 Q 209.3 288.8 208.5 289 Q 207.3 288.8 207 289.5 L 207 290.5 Q 201.8 294.8 198 300.5 Q 195.8 302.3 195.5 306 Q 194.3 305.8 194 306.5 L 194 307.5 L 193 308.5 L 193 309.5 L 192 310.5 L 192 311.5 Q 189.1 314.1 188 318.5 L 188 320.5 L 187 321.5 Q 187.3 325.8 185 327.5 L 185 331.5 Q 183.3 332.3 184 335.5 L 183 336.5 Q 184.5 342 182 343.5 L 182 351.5 L 181 352.5 L 181 369.5 L 180 370.5 L 180 385.5 L 179 386.5 L 179 394.5 Q 181 395.5 179 396.5 Q 180.5 402 178 403.5 L 178 414.5 Q 177.6 417.6 175.5 419 L 140.5 419 Q 139.2 416.8 134.5 418 Q 117.6 413.9 109 401.5 L 109 400.5 L 107 398.5 L 107 397.5 Q 104.1 394.9 103 390.5 L 103 388.5 L 102 387.5 Q 100 382 101 373.5 Q 101.5 372.5 102 373.5 L 102 382.5 L 103 383.5 Q 102.6 387.4 104 389.5 Q 107.3 398.7 113.5 405 Q 121.9 414.1 136.5 417 Q 141.3 415.8 142.5 418 L 174.5 418 Q 176.6 416.6 177 413.5 L 177 399.5 L 178 398.5 L 178 384.5 L 179 383.5 L 179 365.5 L 180 364.5 L 180 350.5 L 181 349.5 L 181 340.5 L 182 339.5 L 182 335.5 L 183 334.5 L 183 330.5 Q 185.5 328.5 185 323.5 Q 194.1 297.1 214 281.5 L 211.5 279 Q 204.8 278.3 200.5 275 Q 193.9 271.1 189 265.5 L 189 264.5 Q 185.3 261.6 183 257.5 Q 179.8 253.3 179 246.5 Q 177.6 245.4 177 243.5 Q 178.5 238 176 236.5 L 176 223.5 Q 180.3 200.8 195.5 189 L 196.5 189 Q 201.8 183.8 209.5 181 Q 212.8 181.8 213.5 180 L 217.5 180 L 218.5 179 Q 224.7 180.8 226.5 178 L 262.5 178 L 263.5 179 Q 264.5 177 265.5 179 L 276.5 179 L 277.5 180 L 281.5 180 L 282.5 181 L 284.5 181 Q 286.2 183.3 290.5 183 Q 300.3 188.3 307 196.5 Q 313.2 204.8 317 215.5 Q 316 219.5 318 220.5 L 318 225.5 L 319 226.5 L 319 236.5 L 318 237.5 L 318 242.5 Q 316.3 243.3 317 246.5 L 316 247.5 Q 315 255.5 311 260.5 Q 306.3 268.3 299.5 274 L 298.5 274 Q 295.4 277.9 290.5 280 Q 284 281.5 279.5 285 L 277.5 285 Q 276.4 286.4 274.5 287 L 272.5 287 Q 268.7 288.2 266.5 291 L 264.5 291 Q 262.4 293.4 259.5 295 Q 257.3 294.8 256.5 296 Q 246 303.5 238 313.5 Q 236.5 318 233 320.5 Q 230 330 225 337.5 L 225 340.5 L 224 341.5 Q 224.8 344.8 223 345.5 L 223 349.5 L 222 350.5 L 222 354.5 L 221 355.5 L 221 363.5 L 220 364.5 L 220 374.5 Q 221.3 375.3 221.5 377 Q 225.5 377.5 226 374.5 Q 232.6 362.6 242.5 354 Q 257.5 340 280.5 334 Q 284.5 335 285.5 333 L 292.5 333 L 293.5 332 L 305.5 332 L 306.5 331 L 317.5 331 L 318.5 330 L 326.5 330 L 327.5 329 L 331.5 329 Q 332.5 327 336.5 328 L 337.5 327 Q 339.6 325.6 343.5 326 Q 346.2 323.2 351.5 323 Q 375.4 312.9 391 294.5 Q 404.4 278.9 411 256.5 L 411 252.5 L 412 251.5 Q 411.2 248.3 413 247.5 L 413 243.5 L 414 242.5 L 414 235.5 L 415 234.5 L 415 221.5 L 414 220.5 L 414 212.5 L 413 211.5 L 413 207.5 Q 411 206.5 412 202.5 L 411 201.5 L 411 198.5 Q 410 193 407 189.5 L 407 187.5 Q 398 167.5 383.5 153 Q 373.6 142.9 360.5 136 Q 354 134.5 349.5 131 L 347.5 131 Q 346.4 129.6 344.5 129 L 341.5 129 L 340.5 128 L 337.5 128 L 336.5 127 L 333.5 127 Q 332.7 125.3 329.5 126 Q 328.5 125.5 329.5 125 Z " /><path fill="rgb(242,206,204)" stroke="rgb(242,206,204)" stroke-width="1" opacity="0.30980392156862746" d="M 239.5 203 Q 241.2 202.7 241.5 204 Q 242.5 202 243.5 204 Q 258.7 205.8 265 216.5 Q 264.8 219.7 267 220.5 Q 266.3 223.8 268 224.5 L 268 228.5 L 269 229.5 L 268 230.5 Q 270 231.5 268 232.5 Q 266.6 248.6 255.5 255 Q 251 255.5 248.5 258 Q 244.5 257 243.5 259 L 237.5 259 Q 224.6 256.9 218 248.5 Q 210.7 241.3 213 224.5 Q 215.3 222.8 215 218.5 Q 218.7 215.7 220.5 211 Q 224 207.5 229.5 206 L 231.5 204 Q 231.7 205.3 233.5 205 L 234.5 204 Q 238.5 205 239.5 203 Z M 235 205 L 234 206 L 232 206 Q 228 207 227 209 L 226 209 Q 217 214 214 226 Q 212 241 219 248 Q 223 253 231 256 Q 234 258 240 257 L 241 258 L 242 257 L 247 257 Q 248 255 253 255 Q 256 253 259 250 L 260 250 Q 265 245 267 237 L 267 226 L 266 225 L 266 223 Q 264 221 264 218 Q 259 210 250 206 Q 244 204 235 205 Z " /><path fill="rgb(242,206,204)" stroke="rgb(242,206,204)" stroke-width="1" opacity="0.30980392156862746" d="M 100.5 328 L 101 328.5 L 101 369.5 Q 100.5 370.5 100 369.5 L 100 328.5 L 100.5 328 Z " /><path fill="rgb(226,219,219)" stroke="rgb(226,219,219)" stroke-width="1" opacity="0.9098039215686274" d="M 143.5 123 L 309.5 123 L 310.5 124 L 320.5 124 L 321 124.5 L 320.5 125 L 304.5 125 L 303.5 124 L 151.5 124 L 150.5 125 L 138.5 125 L 137.5 126 Q 133.6 125.6 131.5 127 Q 130.5 126.5 131.5 126 Q 133.3 124.3 137.5 125 L 138.5 124 L 142.5 124 L 143.5 123 Z " /><path fill="rgb(226,219,219)" stroke="rgb(226,219,219)" stroke-width="1" opacity="0.9098039215686274" d="M 322.5 125 L 328.5 125 L 329.5 126 L 332.5 126 L 333.5 127 L 336.5 127 L 337.5 128 L 340.5 128 Q 341.3 129.8 344.5 129 Q 348.3 132.2 354.5 133 Q 371.7 140.8 384 153.5 Q 400.2 169.3 409 192.5 Q 412.5 200.5 413 211.5 L 414 212.5 L 414 220.5 L 415 221.5 L 415 234.5 L 414 235.5 L 414 242.5 L 413 243.5 Q 413.6 249.6 411 252.5 L 411 256.5 Q 410 262 407 265.5 L 407 267.5 Q 405.6 268.6 405 270.5 L 405 272.5 Q 395.5 292.5 379.5 306 Q 367.4 316.4 351.5 323 L 349.5 323 L 348.5 324 Q 344.6 323.6 343.5 326 Q 338.5 325.5 336.5 328 L 332.5 328 L 331.5 329 Q 327.5 328 326.5 330 L 319.5 330 Q 318.5 329.5 319.5 329 L 325.5 329 L 326.5 328 L 330.5 328 Q 331.5 326 335.5 327 Q 336.7 325.2 339.5 325 L 342.5 325 Q 344.2 322.7 348.5 323 Q 364.6 316.6 377 306.5 Q 376.8 305.3 377.5 305 L 378.5 305 L 390 293.5 L 390 292.5 Q 393.5 289.5 396 285.5 Q 395.8 283.3 397 282.5 L 400 279.5 Q 402.5 271 407 264.5 L 407 262.5 L 408 261.5 Q 407.7 257.2 410 255.5 L 410 252.5 Q 411.8 251.8 411 248.5 L 412 247.5 L 412 240.5 L 413 239.5 Q 411.7 234.8 414 233.5 L 414 223.5 L 413 222.5 Q 414.8 216.3 412 214.5 Q 414 213.5 412 212.5 L 412 207.5 L 411 206.5 Q 411.5 201.5 409 199.5 Q 411 198.5 409 197.5 Q 400.5 170 381.5 153 Q 380.3 153.3 380 152.5 Q 380.3 151.3 379.5 151 Q 378.3 151.3 378 150.5 Q 378.3 149.3 377.5 149 L 376.5 149 Q 373 145 368.5 142 L 367.5 142 Q 366.2 140.2 363.5 140 L 361.5 138 L 360.5 138 L 359.5 137 L 358.5 137 Q 355.9 134.1 351.5 133 L 349.5 133 Q 346 130 340.5 129 L 336.5 129 Q 335.3 127.2 332.5 127 L 327.5 127 Q 326.5 125 322.5 126 Q 321.5 125.5 322.5 125 Z " /><path fill="rgb(226,219,219)" stroke="rgb(226,219,219)" stroke-width="1" opacity="0.9098039215686274" d="M 128.5 127 Q 129.8 126.8 130 127.5 Q 118.2 132.2 111 141.5 Q 105.3 148.8 103.5 160 Q 102 159 103 155.5 Q 107.6 140.1 119.5 132 Q 125.1 130.5 128.5 127 Z " /><path fill="rgb(226,219,219)" stroke="rgb(226,219,219)" stroke-width="1" opacity="0.9098039215686274" d="M 102.5 161 L 103 161.5 L 103 239.5 Q 100.2 241.3 102 247.5 L 103 248.5 L 103 274.5 Q 101 275.5 103 276.5 L 103 303.5 L 102 304.5 L 102 372.5 L 103 373.5 Q 102.1 381.4 104 386.5 L 105 387.5 L 105 389.5 Q 107.5 391.5 108 395.5 Q 107 397 106 394.5 L 106 392.5 Q 104.6 391.4 104 389.5 Q 102.6 387.4 103 383.5 L 102 382.5 L 102 373.5 L 101 372.5 L 101 201.5 L 102 200.5 Q 100 199.5 102 198.5 L 102 161.5 L 102.5 161 Z " /><path fill="rgb(226,219,219)" stroke="rgb(226,219,219)" stroke-width="1" opacity="0.9098039215686274" d="M 221.5 177 L 272.5 177 L 273.5 178 Q 277.5 177 278.5 179 L 283.5 179 Q 284.6 181.4 288.5 181 Q 296.2 184.3 302 189.5 Q 313 198.5 317 214.5 Q 316.5 215.5 316 214.5 Q 311.2 198.3 299.5 189 Q 292.5 182.5 281.5 180 Q 277.5 181 276.5 179 L 265.5 179 L 264.5 178 Q 263.5 180 262.5 178 L 226.5 178 L 225.5 179 L 218.5 179 L 217.5 180 L 213.5 180 Q 212.8 181.8 209.5 181 Q 195.6 186.6 187 197.5 Q 180.5 206 177 217.5 Q 178.3 222.3 176 223.5 L 176 236.5 Q 178.3 237.7 177 242.5 Q 176.5 243.5 176 242.5 Q 173.3 234.2 175 221.5 Q 179.4 200.4 193.5 189 L 194.5 189 Q 199.2 183.7 206.5 181 Q 212.3 178.3 220.5 178 L 221.5 177 Z " /><path fill="rgb(226,219,219)" stroke="rgb(226,219,219)" stroke-width="1" opacity="0.9098039215686274" d="M 234.5 205 Q 244 203.5 249.5 206 Q 258.9 209.6 264 217.5 Q 263.9 221.1 266 222.5 L 266 224.5 L 267 225.5 L 267 236.5 Q 264.6 244.6 259.5 250 L 258.5 250 Q 256.4 253.4 252.5 255 Q 248.2 254.7 246.5 257 L 241.5 257 L 240.5 258 L 239.5 257 Q 233.7 257.8 230.5 256 Q 223.4 253.1 219 247.5 L 219 246.5 Q 216.2 244.3 215 240.5 L 215 238.5 Q 215.5 237.5 216 238.5 Q 217.3 239.7 217 242.5 Q 219.3 247.7 223.5 251 L 224.5 251 Q 228 254.5 233.5 256 L 245.5 256 Q 254.9 253.9 260 247.5 Q 264.4 242.9 266 235.5 L 266 227.5 Q 264 216.5 256.5 211 Q 252.3 207.2 245.5 206 L 235.5 206 Q 224.6 208.6 219 216.5 Q 213.4 223.4 214.5 237 L 214 236.5 L 214 225.5 Q 216.6 214.1 225.5 209 L 226.5 209 Q 228.3 206.8 231.5 206 L 233.5 206 L 234.5 205 Z " /><path fill="rgb(226,219,219)" stroke="rgb(226,219,219)" stroke-width="1" opacity="0.9098039215686274" d="M 317.5 216 Q 320.3 218.7 319 225.5 Q 318.5 226.5 318 225.5 L 318 220.5 Q 315.9 219.4 317.5 216 Z " /><path fill="rgb(226,219,219)" stroke="rgb(226,219,219)" stroke-width="1" opacity="0.9098039215686274" d="M 319.5 228 Q 320.5 228.5 320 230.5 Q 319.5 231.5 319 230.5 Q 318.5 228.5 319.5 228 Z " /><path fill="rgb(226,219,219)" stroke="rgb(226,219,219)" stroke-width="1" opacity="0.9098039215686274" d="M 318.5 237 Q 320.2 238.2 319 242.5 L 318 243.5 L 318 246.5 Q 316.3 247.3 317 250.5 L 315.5 252 Q 314.8 251.8 315 250.5 Q 318.4 245.4 318.5 237 Z " /><path fill="rgb(226,219,219)" stroke="rgb(226,219,219)" stroke-width="1" opacity="0.9098039215686274" d="M 177.5 244 Q 182 260.5 193.5 270 Q 200.5 276.5 211.5 279 L 214 281.5 Q 194.1 297.1 185 323.5 L 185 326.5 L 184 327.5 Q 182.5 330 183 334.5 L 182 335.5 L 182 339.5 L 181 340.5 L 181 349.5 L 180 350.5 L 180 364.5 L 179 365.5 L 179 383.5 L 178 384.5 L 178 398.5 L 177 399.5 L 177 413.5 Q 176.6 416.6 174.5 418 L 142.5 418 L 141.5 417 Q 137.2 418.3 136 416.5 Q 137.2 414.7 141.5 416 L 142.5 417 L 174.5 417 L 175 416.5 L 175 409.5 L 176 408.5 L 176 397.5 L 177 396.5 L 177 378.5 L 178 377.5 L 178 363.5 L 179 362.5 L 179 346.5 L 180 345.5 L 180 339.5 L 181 338.5 L 181 334.5 Q 183 333.5 182 329.5 L 183 328.5 L 183 326.5 L 184 325.5 L 184 323.5 L 185 322.5 L 185 320.5 Q 187.3 318.8 187 314.5 Q 191.5 309 194 301.5 Q 201.6 290.1 212 281.5 Q 208.2 277.8 201.5 277 Q 195 273.5 190.5 268 Q 189.3 268.3 189 267.5 Q 183.5 262.5 181 254.5 L 179 252.5 Q 179.4 248.6 177 247.5 Q 176.3 244.8 177.5 244 Z " /><path fill="rgb(226,219,219)" stroke="rgb(226,219,219)" stroke-width="1" opacity="0.9098039215686274" d="M 314.5 253 Q 315.5 253.5 315 255.5 Q 308.8 267.8 298.5 276 Q 286.6 284.6 270.5 289 Q 259.8 294.3 251 301.5 Q 251.3 302.8 250.5 303 L 249.5 303 L 241 311.5 L 241 312.5 Q 236.1 316.6 233 322.5 L 233 323.5 Q 230.1 326.1 229 330.5 Q 228.3 337.3 225 341.5 Q 225.7 344.8 224 345.5 L 224 349.5 L 223 350.5 L 223 354.5 L 222 355.5 L 222 363.5 L 221 364.5 L 221 374.5 L 222.5 376 L 226 372.5 Q 231 363 238.5 356 Q 253.5 341 276.5 334 L 279.5 334 L 280.5 333 Q 283.8 333.8 284.5 332 L 291.5 332 L 292.5 331 L 302.5 331 L 303.5 330 L 317.5 330 Q 318.5 330.5 317.5 331 L 306.5 331 L 305.5 332 L 293.5 332 L 292.5 333 L 285.5 333 L 284.5 334 L 280.5 334 Q 278.5 336.5 273.5 336 Q 249.9 344.4 235 361.5 L 235 362.5 Q 228.3 368.8 223.5 377 Q 221.5 377.5 221 376.5 Q 218.3 372.7 220 364.5 L 221 363.5 L 221 355.5 L 222 354.5 L 222 350.5 Q 224 349.5 223 345.5 L 224 344.5 L 224 341.5 Q 225.7 340.8 225 337.5 Q 228.4 335.9 228 330.5 Q 236.6 311.1 252.5 299 L 253.5 299 L 256.5 296 Q 261.8 294.8 264.5 291 L 266.5 291 Q 268.7 288.2 272.5 287 L 274.5 287 Q 275.6 285.6 277.5 285 L 279.5 285 Q 284 281.5 290.5 280 Q 299.6 275.1 306 267.5 Q 311.4 261.4 314.5 253 Z " /><path fill="rgb(226,219,219)" stroke="rgb(226,219,219)" stroke-width="1" opacity="0.9098039215686274" d="M 108.5 397 Q 112.2 403.8 118.5 408 Q 125.1 413.4 135 415.5 Q 134.5 416.5 132.5 416 Q 120.3 412.7 113 404.5 Q 108.7 401.2 108.5 397 Z " /></svg>